Simulation
nRows=20
nColumns=15
endheader
time  TH_x TH_y TH_z SC_y  SC_z  SC_x  AC_y  AC_z  AC_x  GH_y  GH_z  GH_yy  EL_x  PS_y
2.8725  0.000000  0.000000  0.000000  -39.399748614915936  -6.7755562526575766  -37.596812620046585  34.30019659007846  33.05993676201867  22.963803537638565  21.95348530288348  10.383956361763458  -12.975122674436772  14.017919468426054  120.000000
2.92995  0.000000  0.000000  0.000000  -39.43525711413941  -6.810156915176745  -37.71831823227136  34.22253093621073  33.8398350917613  23.374933662000288  28.315392536687362  8.817756686620788  -16.462897853061317  14.385346902915806  120.000000
2.9874  0.000000  0.000000  0.000000  -39.498483824175636  -6.779451079573283  -37.71818312631889  34.19665563962881  34.45733614631931  23.684577081477833  36.38384288987996  7.678351222537886  -22.155984168254342  14.838696963487509  120.000000
3.0448500000000003  0.000000  0.000000  0.000000  -39.581284996836516  -6.680518984071204  -37.646622998680336  34.18433842868644  34.90287047490977  23.915195792463233  45.529045624686205  6.964732767635994  -29.44022636360423  15.331647872114724  120.000000
3.1023  0.000000  0.000000  0.000000  -39.675679063682935  -6.526203787754954  -37.51870915899928  34.17490032796215  35.18214878631712  24.07142628350923  54.459057205237364  6.620850493610625  -36.98684374026442  15.82032912591368  120.000000
3.15975  0.000000  0.000000  0.000000  -39.77533780803329  -6.335920413837742  -37.33392185014695  34.17954074839852  35.313007205363085  24.14671926423313  61.90638475077452  6.539564304775537  -43.458626849235905  16.274689991020043  120.000000
3.2172  0.000000  0.000000  0.000000  -39.872781643843325  -6.12727091447162  -37.09259893130858  34.21911585300386  35.320454466773235  24.13374351608332  67.2461437237934  6.602737720155283  -48.144296183312356  16.68434094301858  120.000000
3.2746500000000003  0.000000  0.000000  0.000000  -39.95786613869281  -5.916669833582207  -36.79439243329641  34.31380991540515  35.22804162632547  24.030478108252073  70.5155210135502  6.717136914529393  -50.990321715344535  17.05635389063656  120.000000
3.3321  0.000000  0.000000  0.000000  -40.015530996243164  -5.718560967140413  -36.43762269542718  34.481868086338146  35.0539296027543  23.839566095174536  72.11473840528198  6.829672657079169  -52.312552389303754  17.40740649434251  120.000000
3.38955  0.000000  0.000000  0.000000  -40.030444082472975  -5.543866810142806  -36.01965232949847  34.738609193089616  34.809402686531925  23.565992413563507  72.54262962282431  6.922310350778469  -52.54163842559295  17.75441449818186  120.000000
3.447  0.000000  0.000000  0.000000  -39.99673804160183  -5.399037910012508  -35.538624995322564  35.091325272784964  34.498689505396555  23.217019361793007  72.24486511353184  6.995973658045527  -52.07773864050119  18.10812536189686  120.000000
3.5044500000000003  0.000000  0.000000  0.000000  -39.92159956021525  -5.281889828798979  -34.9950235100146  35.53719244546287  34.12238429827694  22.8014105650031  71.53675322113186  7.0576582281691875  -51.213521897595015  18.47170271807605  120.000000
3.5619  0.000000  0.000000  0.000000  -39.82057703247253  -5.181146825575717  -34.39184980283289  36.064854017737424  33.681050556789295  22.32809602319933  70.58906485413857  7.114774707035321  -50.11412180096738  18.842997861617842  120.000000
3.61935  0.000000  0.000000  0.000000  -39.70986277504963  -5.081658064254257  -33.734439230873086  36.657166525083035  33.17446683279349  21.80733618366538  69.45926500939308  7.1723347955425965  -48.83983976066544  19.217928023480653  120.000000
3.6768  0.000000  0.000000  0.000000  -39.600008052248796  -4.969854865842972  -33.03032898295196  37.29526140899401  32.600284707225136  21.251496691584023  68.13852270716268  7.233543491800232  -47.387295687223926  19.59329757767495  120.000000
3.7342500000000003  0.000000  0.000000  0.000000  -39.4924521666178  -4.836812705837927  -32.288970692920586  37.96193905154921  31.953632476794258  20.67502660718898  66.58674561078685  7.301497514466321  -45.72108927254729  19.96814137690571  120.000000
3.7917  0.000000  0.000000  0.000000  -39.37998551983735  -4.678034669392036  -31.521434440046388  38.64336880735532  31.228100708120174  20.093698902194273  64.74579755829866  7.381292982650696  -43.786349225097624  20.34344581277473  120.000000
3.84915  0.000000  0.000000  0.000000  -39.249109544424186  -4.49201321864811  -30.73985625560688  39.3284996804239  30.41749883918893  19.52400904876022  62.530098899425376  7.4808360824941555  -41.49858704442949  20.7206381115462  120.000000
3.9066  0.000000  0.000000  0.000000  -39.08357310232255  -4.278699921940773  -29.95714850081034  40.00744789852476  29.517548997884518  18.982642293988725  59.814327804939886  7.611463654811379  -38.73125750062598  21.09964814480417  120.000000
3.9640500000000003  0.000000  0.000000  0.000000  -38.866862001894724  -4.037852957220943  -29.187026134430642  40.67173409743977  28.528146183170804  18.484722108755136  56.44114493504965  7.790887189807294  -35.323965370113065  21.4780257867141  120.000000
